<svg width="41" height="34" viewBox="0 0 41 34" fill="none" xmlns="http://www.w3.org/2000/svg">
<path d="M20.9699 1.52068L26.0839 11.6808L39.0624 12.6663C39.2673 12.6806 39.4627 12.7461 39.6239 12.8547C39.7852 12.9632 39.905 13.1099 39.9683 13.2763C40.0317 13.4427 40.0357 13.6213 39.9799 13.7896C39.9241 13.9579 39.811 14.1084 39.6548 14.2222L29.8306 21.5031L32.7278 32.2999C32.758 32.4133 32.7616 32.5307 32.7384 32.6454C32.7151 32.76 32.6655 32.8696 32.5923 32.9679C32.5191 33.0661 32.4238 33.1511 32.3118 33.218C32.1999 33.2848 32.0735 33.3322 31.94 33.3574C31.6638 33.4069 31.3757 33.3611 31.1392 33.2301L19.9901 27.5714L8.81174 33.2577C8.69496 33.318 8.56533 33.358 8.4303 33.3754C8.29527 33.3928 8.15752 33.3873 8.02499 33.3593C7.89245 33.3312 7.76776 33.2812 7.65808 33.212C7.54841 33.1427 7.45593 33.0557 7.38596 32.956C7.31588 32.8583 7.26917 32.7498 7.2485 32.6368C7.22783 32.5237 7.23362 32.4083 7.26552 32.2971L10.1659 21.5003L0.354711 14.2222C0.148485 14.0665 0.0221049 13.8484 0.00263524 13.6146C-0.0168345 13.3807 0.0721543 13.1496 0.250544 12.9708C0.447151 12.7995 0.714595 12.7002 0.995987 12.694L13.9257 11.7084L19.0396 1.52068C19.1221 1.36145 19.2573 1.22606 19.4286 1.13101C19.6 1.03596 19.8002 0.985352 20.0048 0.985352C20.2094 0.985352 20.4096 1.03596 20.5809 1.13101C20.7523 1.22606 20.8875 1.36145 20.9699 1.52068Z" fill="#FFD401"/>
</svg>
