<svg width="53" height="57" viewBox="0 0 53 57" fill="none" xmlns="http://www.w3.org/2000/svg">
<mask id="mask0_7_159" style="mask-type:luminance" maskUnits="userSpaceOnUse" x="0" y="9" width="53" height="39">
<path d="M0 9.58606H53V47.4341H0V9.58606Z" fill="white"/>
</mask>
<g mask="url(#mask0_7_159)">
<path d="M22.6835 9.59204V20.064C22.6835 25.5069 21.9299 29.9974 20.4271 33.5368C18.921 37.0767 16.3163 40.0615 12.6102 42.4911C8.90404 44.9237 4.71097 46.5726 0.0281982 47.4383V38.953C3.41523 37.3742 5.33427 35.2195 5.78588 32.4876H0.0281982V9.59204H22.6835ZM52.9741 9.59204V20.064C52.9741 25.5069 52.2205 29.9974 50.7177 33.5368C49.2117 37.0767 46.6069 40.0615 42.9008 42.4911C39.1946 44.9237 35.0016 46.5726 30.3188 47.4383V38.953C33.6247 37.3742 35.5023 35.2195 35.9517 32.4876H30.3188V9.59204H52.9741Z" fill="#73997A"/>
</g>
</svg>
