<svg width="56" height="56" viewBox="0 0 56 56" fill="none" xmlns="http://www.w3.org/2000/svg">
<path d="M22.2296 46.4794L10.3267 52.1651V9.83556L22.2296 4.15039V46.4794Z" fill="#ADE5FA"/>
<path d="M45.6709 49.9904L22.2291 46.4922V4.1626L45.6709 7.66085V49.9904Z" fill="#ADE5FA"/>
<path d="M45.6715 49.9858L33.7692 55.6698V13.3402L45.6715 7.65503V49.9858Z" fill="#80CBF1"/>
<path d="M10.3267 52.1722L33.7691 55.6698V42.2619L10.3267 38.8506V52.1722Z" fill="#ADE5FA"/>
<path d="M10.3267 9.84204V23.6659L33.7691 27.0772V13.3403L10.3267 9.84204Z" fill="#ADE5FA"/>
<path d="M10.3267 38.8505L33.7691 42.2619V27.0771L10.3267 23.6658V38.8505Z" fill="white"/>
<path d="M25.7594 32.9636C25.7594 36.5324 23.6367 39.424 21.0187 39.424C18.4007 39.424 16.2785 36.5324 16.2785 32.9636C16.2785 29.3953 18.4007 26.5032 21.0187 26.5032C23.6367 26.5032 25.7594 29.3953 25.7594 32.9636Z" fill="#80CBF1"/>
<path d="M10.3267 9.84206L17.3086 0.330811L40.7511 3.83081L33.7691 13.3403L10.3267 9.84206Z" fill="#C7EDFB"/>
<path d="M33.7692 13.3413L45.6709 7.66259L38.7024 6.62134L33.7692 13.3413Z" fill="#E5F7FD"/>
<path d="M38.7024 6.62148L45.6709 7.66273L40.7511 3.83081L38.7024 6.62148Z" fill="#ADE5FA"/>
<path d="M38.7024 6.62081L38.9579 6.80748L41.006 4.01739C41.1098 3.87681 41.0789 3.67848 40.9383 3.57581C40.7977 3.47256 40.5988 3.50231 40.4962 3.64406L38.4475 6.43414C38.3775 6.52923 38.3664 6.65756 38.4201 6.76373C38.4743 6.86989 38.5834 6.93698 38.7024 6.93698C38.8027 6.93698 38.8984 6.88914 38.9579 6.80748L38.7024 6.62081L38.9567 6.80748L41.006 4.01739C41.1098 3.87681 41.0789 3.67848 40.9383 3.57581C40.7977 3.47256 40.5988 3.50231 40.4962 3.64406L38.4475 6.43414L38.7024 6.62081Z" fill="#332519"/>
<path d="M10.3267 9.83557H10.0106V9.84199C10.0106 9.97849 10.0986 10.0992 10.2287 10.1424C10.3582 10.1844 10.5006 10.1389 10.5822 10.0298L10.5892 10.0182C10.6761 9.9009 10.6709 9.7399 10.5781 9.62849C10.4848 9.51707 10.3267 9.48324 10.1966 9.5474L10.1885 9.55032C10.0794 9.60399 10.0106 9.71424 10.0106 9.83557H10.3267L10.4661 10.1191L10.4731 10.115L10.3349 9.83149L10.0806 9.64365L10.0724 9.65415L10.3267 9.84199H10.6429V9.83557H10.3267Z" fill="#332519"/>
<path d="M45.6709 49.9904H45.9871V49.9858C45.9871 49.8796 45.9334 49.7804 45.8447 49.7215C45.7549 49.6632 45.6429 49.6539 45.5449 49.6959L45.5373 49.6994C45.4078 49.7554 45.3314 49.8901 45.3495 50.0289C45.367 50.1684 45.4749 50.2792 45.6137 50.3014L45.6213 50.3031C45.7129 50.3171 45.8057 50.2909 45.8768 50.2308C45.9468 50.1707 45.9871 50.0826 45.9871 49.9904H45.6709L45.7199 49.6784L45.7117 49.6772L45.6633 49.9899L45.7893 50.2792L45.7969 50.2763L45.6709 49.9858H45.3547V49.9904H45.6709Z" fill="#332519"/>
<path d="M38.7024 6.62085V6.30469C38.6021 6.30469 38.5064 6.3531 38.4475 6.43419L33.5137 13.1536C33.4291 13.2691 33.4332 13.4278 33.523 13.5386C33.6134 13.65 33.7686 13.6868 33.8992 13.6284L33.901 13.6279C33.9512 13.6045 33.9932 13.5707 34.0258 13.5264L38.9567 6.80869L38.9655 6.79702L38.9661 6.79585C39.0302 6.69902 39.0367 6.57477 38.9818 6.4721C38.9264 6.36885 38.8197 6.30469 38.7024 6.30469V6.62085L38.4393 6.44527V6.44644L38.7024 6.62144L38.4475 6.43419L33.5166 13.1519L33.7709 13.3397L33.6414 13.0509L33.6391 13.0515L33.7692 13.3403L34.0235 13.5275L38.9567 6.80752L38.7024 6.62085Z" fill="#332519"/>
<path d="M45.6715 7.65515L45.5297 7.37223L45.5239 7.37573C45.4288 7.42298 45.3635 7.5169 45.3512 7.62306C45.3396 7.72923 45.3827 7.83481 45.4656 7.90306L45.4708 7.90715L45.6709 7.66273L45.535 7.3769L33.6333 13.0568L33.7692 13.3415L34.0212 13.5328L34.0229 13.5305C34.111 13.4156 34.1093 13.2563 34.0188 13.1431C33.9278 13.0294 33.7733 12.9915 33.6414 13.051L33.6391 13.0516C33.5265 13.1029 33.453 13.2161 33.453 13.3403V55.6699C33.453 55.7784 33.5084 55.8793 33.6006 55.9376C33.6928 55.9954 33.8071 56.0018 33.9051 55.9546L45.7934 50.2776L45.7969 50.2764C45.8214 50.2653 45.8395 50.2548 45.8599 50.2391L45.8611 50.2385C45.941 50.1784 45.9877 50.0845 45.9877 49.9859V7.65515C45.9877 7.54606 45.9311 7.44398 45.8377 7.38623C45.7438 7.32848 45.6289 7.32381 45.5297 7.37223L45.6715 7.65515H45.3553V49.9859H45.6715L45.4819 49.7327H45.4813L45.6709 49.9859L45.5449 49.696L45.5373 49.6995L45.5268 49.7041L34.0853 55.1688V13.3403H33.7692L33.8993 13.6285L33.901 13.6279L33.7709 13.3397L33.5195 13.1478L33.5178 13.1496C33.4291 13.2656 33.4314 13.4278 33.5236 13.5404C33.6158 13.6541 33.7738 13.6897 33.9057 13.6267L45.8074 7.9474C45.9048 7.90131 45.9719 7.8074 45.9847 7.70065C45.9976 7.59331 45.955 7.48656 45.8716 7.41831L45.8669 7.41423L45.6657 7.65865L45.8074 7.94098L45.8132 7.93865L45.6715 7.65515Z" fill="#332519"/>
<path d="M33.7691 42.262L33.8146 41.9493L10.3728 38.538C10.2824 38.5246 10.1891 38.552 10.1202 38.6121C10.0508 38.6722 10.0106 38.7591 10.0106 38.8507V52.1723C10.0106 52.3286 10.1261 52.461 10.2806 52.4843L33.7225 55.9826C33.8129 55.996 33.9056 55.9686 33.9751 55.9097C34.0451 55.8496 34.0853 55.7615 34.0853 55.6699V42.262C34.0853 42.1045 33.9698 41.9715 33.8146 41.9493L33.7691 42.262H33.453V55.303L10.3734 51.8596L10.3267 52.1723H10.6429V39.2158L33.7236 42.5747L33.7691 42.262Z" fill="#332519"/>
<path d="M33.7691 27.0771H34.0853V13.3402C34.0853 13.1833 33.971 13.0509 33.8158 13.0276L10.3734 9.52931C10.283 9.51589 10.1902 9.54214 10.1208 9.60223C10.0514 9.66231 10.0106 9.75039 10.0106 9.84198V23.6658C10.0106 23.8227 10.1261 23.9551 10.2812 23.9785L33.7236 27.3886C33.8135 27.4026 33.9068 27.3758 33.9756 27.3157C34.0451 27.2556 34.0853 27.1681 34.0853 27.0771H33.7691L33.8146 26.7639L10.6429 23.3922V10.2083L33.453 13.6121V27.0771H33.7691Z" fill="#332519"/>
<path d="M16.2785 32.9636H16.5946C16.5941 31.2422 17.1086 29.6894 17.9217 28.5822C18.3283 28.0286 18.8078 27.5864 19.3311 27.2843C19.8561 26.9821 20.4225 26.8194 21.0186 26.8194C21.6148 26.8194 22.1812 26.9821 22.7056 27.2843C23.4914 27.7369 24.178 28.5064 24.6656 29.4916C25.1539 30.4757 25.4432 31.6727 25.4421 32.9636C25.4432 34.6856 24.9281 36.2384 24.1156 37.3456C23.709 37.8992 23.2295 38.3414 22.7056 38.6429C22.1812 38.9451 21.6148 39.1084 21.0186 39.1084C20.4225 39.1084 19.8561 38.9451 19.3311 38.6429C18.5459 38.1914 17.8587 37.4209 17.3716 36.4362C16.8834 35.4515 16.5941 34.2551 16.5941 32.9636H15.9623C15.9623 34.8104 16.5095 36.4881 17.4119 37.7189C17.8628 38.3344 18.4047 38.8389 19.0149 39.1907C19.6251 39.543 20.3052 39.7414 21.0186 39.7402C21.7315 39.7414 22.4116 39.543 23.0218 39.1907C23.9371 38.6622 24.6989 37.7936 25.2321 36.7168C25.767 35.6388 26.0744 34.349 26.0744 32.9636C26.0744 31.1168 25.5278 29.4397 24.6254 28.2089C24.1739 27.5929 23.6326 27.0894 23.0218 26.7371C22.4116 26.3848 21.7315 26.1864 21.0186 26.1864C20.3052 26.1864 19.6251 26.3848 19.0149 26.7371C18.0996 27.2656 17.3384 28.1336 16.8041 29.211C16.2703 30.289 15.9623 31.5788 15.9617 32.9636H16.2785ZM33.7691 42.2619H34.0853V27.0772C34.0853 26.9191 33.9698 26.7867 33.8146 26.7639L10.3728 23.3532C10.2824 23.3398 10.1891 23.3672 10.1202 23.4273C10.0508 23.4862 10.0106 23.5743 10.0106 23.6659V38.8506C10.0106 39.0075 10.1261 39.1411 10.2812 39.1633L33.7236 42.5746C33.8135 42.588 33.9068 42.5606 33.9756 42.5005C34.0451 42.441 34.0853 42.3535 34.0853 42.2619H33.7691L33.8146 41.9493L10.6429 38.5776V24.031L33.453 27.3502V42.2619H33.7691Z" fill="#332519"/>
<path d="M25.7594 32.9637H26.0756C26.0744 31.1169 25.5278 29.4398 24.6254 28.2089C24.1739 27.5929 23.6326 27.0895 23.0218 26.7372C22.4116 26.3849 21.7315 26.1865 21.0186 26.1865C20.3052 26.1865 19.6251 26.3849 19.0149 26.7372C18.0996 27.2657 17.3384 28.1337 16.8041 29.2111C16.2703 30.2891 15.9623 31.5789 15.9617 32.9637C15.9623 34.8105 16.5095 36.4882 17.4119 37.719C17.8628 38.3344 18.4047 38.839 19.0149 39.1908C19.6251 39.5431 20.3052 39.7414 21.0186 39.7403C21.7315 39.7414 22.4116 39.5431 23.0218 39.1908C23.9371 38.6623 24.6989 37.7937 25.2321 36.7169C25.767 35.6389 26.0744 34.3491 26.0744 32.9637H25.4432C25.4432 34.6857 24.9281 36.2385 24.1156 37.3457C23.709 37.8993 23.2295 38.3414 22.7056 38.643C22.1812 38.9452 21.6148 39.1085 21.0186 39.1085C20.4225 39.1085 19.8561 38.9452 19.3311 38.643C18.5459 38.1915 17.8587 37.4209 17.3716 36.4363C16.8834 35.4516 16.5941 34.2552 16.5941 32.9637C16.5941 31.2423 17.1086 29.6894 17.9217 28.5823C18.3283 28.0287 18.8078 27.5865 19.3311 27.2844C19.8561 26.9822 20.4225 26.8194 21.0186 26.8194C21.6148 26.8194 22.1812 26.9822 22.7056 27.2844C23.4914 27.737 24.178 28.5064 24.6656 29.4917C25.1539 30.4758 25.4432 31.6728 25.4421 32.9637H25.7594Z" fill="#332519"/>
<path d="M33.7692 13.3403L34.0235 13.5275L38.9568 6.80754L41.006 4.01746C41.0719 3.92821 41.0859 3.81096 41.0428 3.70887C41.0002 3.60679 40.908 3.53446 40.7978 3.51812L17.3559 0.0181246C17.2398 0.000624561 17.1226 0.050208 17.0538 0.144125L10.0806 9.64429V9.64371L10.0724 9.65421C10.0065 9.74404 9.99251 9.86071 10.0351 9.96279C10.0783 10.066 10.1704 10.1384 10.2807 10.1547L33.7225 13.653C33.8386 13.6705 33.9547 13.6209 34.0235 13.5275L33.7692 13.3403L33.8158 13.0276L10.3734 9.52937L10.3268 9.84204L10.5823 10.0299L10.5893 10.0182H10.5904L17.4504 0.671458L40.1864 4.06529L38.4475 6.43421L33.5137 13.1536L33.7692 13.3403Z" fill="#332519"/>
<path d="M38.7024 6.62142L38.4475 6.43417L33.5178 13.1495C33.4291 13.2656 33.4314 13.4278 33.5236 13.5403C33.6158 13.6541 33.7738 13.6897 33.9057 13.6267L45.8074 7.94733C45.9334 7.88725 46.004 7.75308 45.9836 7.616C45.9632 7.47775 45.8558 7.37042 45.7176 7.35L38.7497 6.30875C38.6336 6.29183 38.5163 6.34025 38.4475 6.43417L38.7024 6.62142L38.6558 6.9335L44.6017 7.8225L33.6333 13.0567L33.7692 13.3414L34.0212 13.5328L34.0229 13.5304L34.0258 13.5263L38.9568 6.80867L38.7024 6.62142Z" fill="#332519"/>
<path d="M38.7024 6.62131L38.6558 6.93339L45.6237 7.97464C45.7649 7.99564 45.9019 7.92039 45.9597 7.79031C46.0174 7.66022 45.9813 7.50797 45.8716 7.41814L45.8669 7.41406L45.8599 7.40881L40.9459 3.58156C40.8783 3.52847 40.7925 3.50572 40.7079 3.51739C40.6228 3.52964 40.5469 3.57397 40.4962 3.64397L38.4475 6.43406L38.4394 6.44514V6.44631C38.3799 6.53497 38.3699 6.65047 38.4137 6.74906C38.4574 6.84764 38.5496 6.91764 38.6558 6.93339L38.7024 6.62131L38.9655 6.79689L38.9661 6.79572L38.7024 6.62072L38.9579 6.80739L40.8141 4.27981L45.4697 7.90639L45.4709 7.90697L45.6709 7.66256L45.7176 7.34989L38.7497 6.30864L38.7024 6.62131Z" fill="#332519"/>
</svg>
