<svg width="65" height="58" viewBox="0 0 65 58" fill="none" xmlns="http://www.w3.org/2000/svg">
<g clip-path="url(#clip0_138_119)">
<path fill-rule="evenodd" clip-rule="evenodd" d="M45.8301 6.93111C46.392 5.70247 47.1653 4.62892 48.0994 3.78065C50.6331 1.51862 54.6851 1.07125 57.7161 1.78326C60.3025 2.43444 62.7697 3.63386 65 5.32437C63.1116 7.12644 60.2393 8.72687 57.0337 10.1824C54.6903 11.3245 52.1285 11.6776 49.6281 11.2031L49.7233 11.3418L49.6175 11.2976C48.1946 10.7684 46.8034 10.2202 45.5127 9.6027L45.8036 6.98782V6.93111H45.8301Z" fill="#5E990B"/>
<path fill-rule="evenodd" clip-rule="evenodd" d="M45.7983 6.99412L45.83 6.91851V6.96261L45.5391 9.5775C44.7509 9.19944 43.9522 8.73947 43.2169 8.38662L43.7829 4.19651C43.8327 3.82803 44.0034 3.49821 44.2573 3.2796C44.5113 3.061 44.8277 2.97151 45.1371 3.03084C45.4464 3.09016 45.7233 3.29343 45.9068 3.59594C46.0904 3.89844 46.1655 4.27539 46.1157 4.64387L45.8036 6.99412H45.7983Z" fill="#7F573C"/>
<path fill-rule="evenodd" clip-rule="evenodd" d="M49.6016 11.2031C50.267 11.7119 50.8999 12.2784 51.4954 12.8981C54.0169 15.49 55.8251 18.926 56.6846 22.759C57.5756 26.949 57.5992 31.334 56.7533 35.5373C55.5484 42.328 52.2942 48.3565 47.6074 52.4805C43.306 56.1908 38.1059 58.1287 32.7962 58.0001C34.1238 56.9079 35.3352 55.6279 36.4038 54.188C38.4629 51.3944 40.2384 48.3215 41.6935 45.0328C44.185 39.3619 45.7613 32.7145 44.9573 26.7601C44.2643 21.5996 41.9157 17.0126 37.0809 13.9377C35.5549 12.9699 33.8862 12.3623 32.1667 12.1482C32.8835 11.5105 33.6485 10.9536 34.4519 10.4848C37.1885 8.95317 40.1962 8.23534 43.217 8.3929C45.4929 8.75839 47.673 9.71797 49.6016 11.2031Z" fill="#F5AC31"/>
<path fill-rule="evenodd" clip-rule="evenodd" d="M46.4596 8.19114C52.9289 6.14334 54.5158 5.14779 61.2126 5.67077C54.8173 7.70597 53.0876 8.19114 46.4596 8.19114Z" fill="#537918"/>
<path fill-rule="evenodd" clip-rule="evenodd" d="M13.3618 13.1689C15.3877 13.4651 17.5935 12.9043 19.921 11.411L20.3706 8.68268C17.8104 3.29539 13.4781 0.51038 6.34762 1.80837L3.54407 2.16122C5.59648 7.23346 8.12496 12.4065 13.3512 13.1689H13.3618Z" fill="#7DB820"/>
<path fill-rule="evenodd" clip-rule="evenodd" d="M6.80261 3.98853C11.4629 5.91031 14.4833 6.67272 18.3977 10.2894C13.785 8.48108 10.8545 7.29651 6.80261 3.98853Z" fill="#537918"/>
<path fill-rule="evenodd" clip-rule="evenodd" d="M19.6883 12.0914H19.7148C19.5806 13.2859 19.5205 14.4905 19.5349 15.6956L22.0158 15.7523C21.9642 13.5144 22.2288 11.2822 22.7987 9.14889C23.4896 6.62223 24.7179 4.35166 26.364 2.55813C26.4952 2.43136 26.6033 2.27392 26.6815 2.09552C26.7597 1.91711 26.8065 1.72151 26.8188 1.52078C26.8312 1.32004 26.8089 1.11841 26.7534 0.928314C26.6979 0.738218 26.6102 0.56368 26.4959 0.41545C26.3816 0.267221 26.243 0.148441 26.0887 0.0664272C25.9344 -0.0155868 25.7676 -0.0590976 25.5987 -0.0614249C25.4297 -0.0637521 25.2621 -0.0248464 25.1063 0.0528953C24.9504 0.130637 24.8096 0.245569 24.6924 0.39061C22.736 2.52556 21.278 5.22845 20.4606 8.23526C20.3496 8.63852 20.2438 9.05438 20.1538 9.49544L19.7201 12.1418L19.6883 12.0914Z" fill="#543429"/>
<path fill-rule="evenodd" clip-rule="evenodd" d="M16.3402 14.9143C3.08946 9.95549 -4.2315 28.1084 2.64512 42.4872C4.70282 46.7907 7.19428 51.2265 11.0558 55.2528C14.7586 58.4033 17.9694 57.9559 20.9581 56.0152C23.3385 57.3573 25.8511 57.9055 28.5541 56.6831C32.532 54.9063 36.5786 47.8618 38.4882 43.5394C42.6512 34.0439 44.0689 21.8705 34.7854 15.9351C32.2146 14.3094 29.0461 13.8621 25.0312 14.9143C22.1994 15.9495 19.172 15.9495 16.3402 14.9143Z" fill="#D3141B"/>
<path fill-rule="evenodd" clip-rule="evenodd" d="M6.63326 36.7974C6.86966 36.7034 7.12769 36.725 7.35078 36.8573C7.57388 36.9895 7.74385 37.2218 7.82345 37.5031C8.35043 39.3572 9.13153 41.0945 10.1351 42.6446C11.1815 44.237 12.3797 45.6791 13.7056 46.9419C13.8015 47.0349 13.881 47.1496 13.9397 47.2793C13.9983 47.409 14.035 47.5512 14.0475 47.6978C14.06 47.8443 14.0482 47.9924 14.0127 48.1335C13.9771 48.2746 13.9186 48.4061 13.8405 48.5202C13.7623 48.6344 13.6661 48.7292 13.5572 48.799C13.4483 48.8689 13.3289 48.9126 13.2059 48.9275C13.0829 48.9424 12.9585 48.9283 12.8401 48.886C12.7216 48.8437 12.6113 48.774 12.5154 48.6809C11.0733 47.3114 9.77345 45.7418 8.64335 44.0056C7.51394 42.2594 6.63458 40.3029 6.04081 38.2151C5.96196 37.9335 5.98004 37.6261 6.09109 37.3604C6.20214 37.0947 6.39711 36.8922 6.63326 36.7974Z" fill="white"/>
</g>
<defs>
<clipPath id="clip0_138_119">
<rect width="65" height="58" fill="white"/>
</clipPath>
</defs>
</svg>
