<svg width="56" height="56" viewBox="0 0 56 56" fill="none" xmlns="http://www.w3.org/2000/svg">
<g clip-path="url(#clip0_138_138)">
<path fill-rule="evenodd" clip-rule="evenodd" d="M28.0729 8.92459C30.903 6.87847 31.304 4.02453 28.0911 0C26.6966 1.48985 23.7435 5.81913 28.0729 8.92459Z" fill="#F09418"/>
<path fill-rule="evenodd" clip-rule="evenodd" d="M40.4368 46.3691C40.6191 45.8951 41.125 45.6678 41.5716 45.8612C42.0182 46.0547 42.2324 46.5917 42.0501 47.0657C41.6947 47.9993 41.2799 48.928 40.8652 49.8616C40.0814 51.6223 39.293 53.3976 38.8828 55.2792C38.7734 55.7775 38.3086 56.087 37.8392 55.9758C37.3698 55.8597 37.0781 55.3663 37.1829 54.8681C37.6341 52.7881 38.4635 50.9209 39.2884 49.0731C39.6895 48.1734 40.0859 47.2834 40.4368 46.3691Z" fill="#F09418"/>
<path fill-rule="evenodd" clip-rule="evenodd" d="M13.8085 47.0609C13.6263 46.5869 13.845 46.0499 14.2871 45.8564C14.7337 45.663 15.2395 45.8951 15.4218 46.3644C15.7727 47.2834 16.1692 48.1735 16.5657 49.0635C17.3587 50.8484 18.1608 52.6478 18.6256 54.6504C18.7395 55.1438 18.4524 55.6469 17.983 55.763C17.5182 55.8839 17.0442 55.5792 16.9349 55.0809C16.5156 53.2718 15.75 51.5546 14.9934 49.8471C14.5787 48.9232 14.1686 47.9945 13.8085 47.0609Z" fill="#F09418"/>
<path fill-rule="evenodd" clip-rule="evenodd" d="M27.0795 43.283C27.0795 42.7703 27.4714 42.3591 27.9499 42.3591C28.433 42.3591 28.8204 42.7751 28.8204 43.283V54.5924C28.8204 55.1051 28.4284 55.5163 27.9499 55.5163C27.4668 55.5163 27.0795 55.1003 27.0795 54.5924V43.283Z" fill="#F09418"/>
<path fill-rule="evenodd" clip-rule="evenodd" d="M51.3014 19.5324C54.054 18.8165 55.1432 16.7317 53.7533 12.6201C52.263 13.3457 48.7949 15.7933 51.3014 19.5324Z" fill="#F09418"/>
<path fill-rule="evenodd" clip-rule="evenodd" d="M50.5813 23.412C52.8372 24.5245 54.1087 24.4278 56 20.8096C53.6575 20.5677 51.3834 19.7841 50.5813 23.412ZM49.2187 22.875C46.8307 22.1446 45.9283 21.182 46.7395 17.1333C48.6582 18.5845 50.8548 19.5761 49.2187 22.875ZM41.7539 44.0038C38.5045 43.0074 37.2786 41.7013 38.3815 36.1966C40.9928 38.1653 43.9824 39.5149 41.7539 44.0038ZM43.8092 38.175C40.5599 37.1786 39.3339 35.8725 40.4368 30.3678C43.0481 32.3365 46.0332 33.6861 43.8092 38.175ZM45.8281 32.4623C42.9388 31.5771 41.8496 30.4162 42.8294 25.521C45.1536 27.272 47.8105 28.4716 45.8281 32.4623ZM47.6282 27.3833C45.0625 26.5997 44.0963 25.5645 44.9668 21.2207C47.0267 22.7734 49.3828 23.8425 47.6282 27.3833ZM43.153 44.5553C46.22 46.0693 47.9518 45.9339 50.5267 41.0096C47.3365 40.6807 44.2467 39.6213 43.153 44.5553ZM45.2083 38.7265C48.2753 40.2405 50.0071 40.1051 52.582 35.1808C49.3919 34.8519 46.302 33.7925 45.2083 38.7265ZM47.2135 33.0089C49.9433 34.3537 51.4791 34.2376 53.7669 29.8599C50.9323 29.5648 48.1842 28.6216 47.2135 33.0089ZM48.9954 27.925C51.4153 29.1198 52.7825 29.0134 54.8151 25.1292C52.2994 24.8679 49.8567 24.0311 48.9954 27.925Z" fill="#FFD203"/>
<path fill-rule="evenodd" clip-rule="evenodd" d="M4.69859 19.3825C1.94599 18.6666 0.856792 16.5818 2.24677 12.4702C3.737 13.2006 7.2051 15.6434 4.69859 19.3825Z" fill="#F09418"/>
<path fill-rule="evenodd" clip-rule="evenodd" d="M5.41862 23.2669C3.16276 24.3794 1.89128 24.2779 0 20.6597C2.34245 20.4178 4.61654 19.639 5.41862 23.2669ZM14.2461 43.8539C17.4954 42.8575 18.7214 41.5514 17.6185 36.0467C15.0072 38.0154 12.0176 39.3699 14.2461 43.8539ZM12.1908 38.0251C15.4401 37.0287 16.666 35.7226 15.5632 30.2179C12.9518 32.1866 9.9668 33.5362 12.1908 38.0251ZM10.1719 32.3124C13.0612 31.4272 14.1504 30.2663 13.1706 25.3711C10.8464 27.1221 8.18945 28.3217 10.1719 32.3124ZM8.37175 27.2334C10.9375 26.4498 11.9036 25.4146 11.0332 21.0708C8.97331 22.6284 6.61719 23.6926 8.37175 27.2334ZM6.78125 22.7251C9.16927 21.9947 10.0716 21.0321 9.26042 16.9834C7.3418 18.4346 5.14518 19.4262 6.78125 22.7251ZM12.847 44.4102C9.77995 45.9242 8.04818 45.7888 5.47331 40.8645C8.66341 40.5356 11.7533 39.4714 12.847 44.4102ZM10.7917 38.5814C7.72461 40.0954 5.99284 39.96 3.41797 35.0357C6.60807 34.7068 9.69792 33.6426 10.7917 38.5814ZM8.78646 32.859C6.05664 34.2038 4.52083 34.0877 2.23307 29.71C5.06771 29.4149 7.81576 28.4717 8.78646 32.859ZM7.00456 27.78C4.58464 28.9748 3.21745 28.8683 1.1849 24.9841C3.70052 24.718 6.14323 23.8812 7.00456 27.78Z" fill="#FFD203"/>
<path fill-rule="evenodd" clip-rule="evenodd" d="M28.8112 19.4649C32.0286 19.7309 33.5326 18.9957 34.2845 13.6844C31.3314 14.5213 28.237 14.6664 28.8112 19.4649ZM28.8066 13.6457C31.8053 13.8924 33.2044 13.2104 33.9017 8.26196C31.1536 9.03591 28.2734 9.17619 28.8066 13.6457ZM27.0293 40.9226C22.9505 41.2563 21.0456 40.3276 20.0977 33.5991C23.8392 34.6536 27.7585 34.8422 27.0293 40.9226ZM27.0293 33.3959C22.9505 33.7297 21.0456 32.801 20.0977 26.0724C23.8392 27.1318 27.7585 27.3204 27.0293 33.3959ZM27.0384 26.0241C23.4108 26.324 21.7155 25.4968 20.8724 19.5132C24.1992 20.4516 27.6855 20.6161 27.0384 26.0241ZM27.0475 19.4649C23.8301 19.7309 22.3262 18.9957 21.5742 13.6844C24.5273 14.5213 27.6217 14.6664 27.0475 19.4649ZM27.0521 13.6457C24.0534 13.8924 22.6543 13.2104 21.957 8.26196C24.7051 9.03591 27.5898 9.17619 27.0521 13.6457ZM28.834 40.9226C32.9128 41.2563 34.8177 40.3276 35.7656 33.5991C32.0241 34.6536 28.1003 34.8422 28.834 40.9226ZM28.834 33.3959C32.9128 33.7297 34.8177 32.801 35.7656 26.0724C32.0241 27.1318 28.1003 27.3204 28.834 33.3959ZM28.8203 26.0241C32.4479 26.324 34.1432 25.4968 34.9863 19.5132C31.6595 20.4516 28.1732 20.6161 28.8203 26.0241Z" fill="#FFD203"/>
</g>
<defs>
<clipPath id="clip0_138_138">
<rect width="56" height="56" fill="white"/>
</clipPath>
</defs>
</svg>
