<svg width="58" height="58" viewBox="0 0 58 58" fill="none" xmlns="http://www.w3.org/2000/svg">
<g clip-path="url(#clip0_138_149)">
<path fill-rule="evenodd" clip-rule="evenodd" d="M39.2848 10.9315C38.6223 10.5822 37.9504 10.2849 37.2736 10.0347C36.9305 9.90727 36.6207 9.80815 36.3348 9.72791C36.0393 9.64295 35.739 9.57687 35.4292 9.52023C30.9923 8.70366 28.738 11.2289 26.0072 14.2733C25.7117 14.6037 25.4067 14.9388 25.178 15.189C19.6306 21.2354 14.9124 27.6736 10.871 34.3099C6.83434 40.9463 3.47921 47.7904 0.672139 54.6345C0.486272 55.0876 0.457677 55.149 0.438614 55.2009C-0.0332018 56.3054 -0.261961 56.8482 0.491038 57.5656C1.17732 58.217 1.70632 58.0329 2.75004 57.6695C3.02169 57.5751 3.35053 57.4571 3.42678 57.4335C9.42695 55.4558 15.7321 52.5765 22.4376 48.5267C29.1145 44.4911 36.2013 39.2754 43.7885 32.6202C44.7988 31.7328 43.6026 32.7854 44.2698 32.2048C47.1818 29.6654 49.1024 27.9945 48.7783 23.8503C48.7592 23.619 48.7306 23.3641 48.6925 23.0904C48.6544 22.8213 48.6115 22.557 48.5591 22.2927C48.3017 20.9805 47.8061 19.6967 47.1341 18.4789C47.2104 17.1242 44.0601 14.3913 39.2848 10.9315Z" fill="#D14B02"/>
<path fill-rule="evenodd" clip-rule="evenodd" d="M42.4777 30.1847C42.5921 30.0809 42.7827 29.9157 42.4777 30.1847V30.1847Z" fill="white"/>
<path fill-rule="evenodd" clip-rule="evenodd" d="M35.5053 23.9024C36.001 24.3933 36.001 25.1957 35.5053 25.6913C35.0097 26.1822 34.1995 26.1822 33.6991 25.6913L26.1119 18.1722C21.775 23.0433 17.9576 28.1835 14.5882 33.4699L19.2777 38.1145C19.7734 38.6053 19.7734 39.4077 19.2777 39.9034C18.7821 40.3942 17.9719 40.3942 17.4715 39.9034L13.2156 35.6883L13.2108 35.6978C9.46968 41.848 6.32424 48.1776 3.66492 54.5261C6.68645 53.4829 9.79852 52.1897 13.0059 50.6273L9.43632 47.1014C8.94068 46.6105 8.94068 45.8081 9.43632 45.3125C9.93197 44.8216 10.7422 44.8216 11.2426 45.3125L15.3888 49.419C17.238 48.4561 19.1157 47.3941 21.0316 46.2377C24.4963 44.142 28.0754 41.7206 31.7832 38.9405L24.0817 31.3176C23.586 30.8267 23.586 30.0243 24.0817 29.5287C24.5773 29.0378 25.3875 29.0378 25.8879 29.5287L33.8135 37.3828C36.4728 35.3155 39.1989 33.064 41.9964 30.6143L42.4777 30.1895C42.3681 30.2839 42.411 30.2508 42.4777 30.1895C44.7796 28.1835 46.2856 26.8666 46.0712 24.0534C46.0569 23.8505 46.033 23.6522 46.0092 23.4587C45.9806 23.2557 45.9425 23.0386 45.8948 22.7979C45.6804 21.6981 45.2419 20.6078 44.6462 19.5694C43.9933 18.4366 43.1402 17.3557 42.1775 16.3928C41.3196 15.5337 40.3617 14.7596 39.3657 14.1035C38.3744 13.4522 37.3449 12.9283 36.3346 12.5507C36.1011 12.4657 35.858 12.3854 35.6054 12.3146C35.3624 12.2486 35.1431 12.1966 34.943 12.1589C32.0072 11.6161 30.2058 13.6268 28.0373 16.0435L27.8133 16.2889L35.5053 23.9024Z" fill="#FF7900"/>
<path fill-rule="evenodd" clip-rule="evenodd" d="M58 17.2896C55.5361 14.3065 52.8291 12.8291 49.7837 12.8433C53.5011 10.2614 56.127 5.8151 56.5655 1.43962C51.5519 2.08626 47.4628 4.63037 45.0227 8.48193C45.1561 5.32894 43.674 2.52995 40.5428 0C38.1933 2.92171 37.1781 7.23112 39.1464 11.111L47.5057 19.0029C51.2278 20.4897 55.2311 19.4702 58 17.2896Z" fill="#75AA00"/>
<path fill-rule="evenodd" clip-rule="evenodd" d="M58 17.2897C55.5361 14.3066 52.8291 12.8292 49.7837 12.8434C47.8583 14.2075 45.5326 14.7833 42.8161 14.5756L47.5009 19.003C51.2278 20.4898 55.2311 19.4703 58 17.2897Z" fill="#498A0C"/>
</g>
<defs>
<clipPath id="clip0_138_149">
<rect width="58" height="58" fill="white"/>
</clipPath>
</defs>
</svg>
