<svg width="77" height="76" viewBox="0 0 77 76" fill="none" xmlns="http://www.w3.org/2000/svg">
<path d="M38.4912 1.92578C38.6878 1.92584 38.8811 1.98366 39.0479 2.09375C39.1732 2.17656 39.2803 2.28652 39.3604 2.41602L39.4307 2.55176L49.2666 25.834L49.5 26.3867L50.0977 26.4404L75.0693 28.7002L75.0771 28.7012C75.2717 28.7174 75.4588 28.7913 75.6143 28.916C75.77 29.041 75.8877 29.2117 75.9502 29.4072C76.0126 29.6027 76.0159 29.8128 75.9609 30.0107C75.9196 30.1592 75.8475 30.2954 75.75 30.4092L75.6377 30.5215L56.7344 47.2129L56.291 47.6045L56.4209 48.1816L61.9951 72.9336C62.0246 73.0663 62.0287 73.2037 62.0059 73.3379C61.9829 73.4725 61.9338 73.6006 61.8623 73.7148C61.7909 73.8291 61.6984 73.9274 61.5908 74.0039C61.4843 74.0796 61.3647 74.1325 61.2393 74.1611C60.9733 74.216 60.6958 74.1635 60.4658 74.0117L60.4492 74.001L60.4316 73.9902L38.9805 61.0186L38.4619 60.7051L37.9443 61.0186L16.4365 74.0547L16.4307 74.0576C16.3192 74.1261 16.1959 74.1708 16.0684 74.1904C15.9409 74.21 15.8109 74.2044 15.6855 74.1729C15.5601 74.1412 15.4411 74.0839 15.3359 74.0049C15.2309 73.9259 15.1413 73.8264 15.0732 73.7109L15.0684 73.7021L15.0215 73.6152C14.9795 73.5269 14.9506 73.4319 14.9355 73.334C14.9155 73.2033 14.9212 73.0698 14.9521 72.9414L14.9531 72.9346L14.9551 72.9277L20.5352 48.1758L20.666 47.5986L20.2227 47.207L1.34473 30.5215C1.14622 30.34 1.02233 30.085 1.00293 29.8086C0.984214 29.5407 1.0658 29.2777 1.22754 29.0713C1.42214 28.8819 1.67705 28.7746 1.94238 28.7676L1.97461 28.7666L2.00684 28.7637L26.8848 26.5039L27.4824 26.4502L27.7158 25.8965L37.5508 2.55176C37.6329 2.36289 37.7666 2.20412 37.9336 2.09375C38.1004 1.9835 38.2944 1.92578 38.4912 1.92578Z" stroke="#1E3D30" stroke-width="2"/>
</svg>
